<!DOCTYPE svg PUBLIC "-//W3C//DTD SVG 1.1//EN" "http://www.w3.org/Graphics/SVG/1.1/DTD/svg11.dtd">
<!-- Uploaded to: SVG Repo, www.svgrepo.com, Transformed by: SVG Repo Mixer Tools -->
<svg width="800px" height="800px" viewBox="-2.4 -2.4 28.80 28.80" fill="none" xmlns="http://www.w3.org/2000/svg" stroke="#000000">
<g id="SVGRepo_bgCarrier" stroke-width="0">
<path transform="translate(-2.4, -2.4), scale(0.8999999999999999)" d="M16,29.79443973965115C18.418422573619672,30.77410675858291,21.48433005566891,30.711718699245175,23.678660990463364,29.299830969579702C25.869632918617114,27.89010450929464,26.221718111409878,24.895732758209697,27.29973574666124,22.523905475106506C28.276279886799674,20.37533762334329,30.063825684461218,18.335422952994925,29.723558286825817,16C29.385437790126467,13.67931228687435,26.60935331925309,12.578863172376668,25.54619650193542,10.488500879870523C24.3974180434375,8.229790656720192,25.009052745434303,5.230126353887385,23.296195174256965,3.36261925624809C21.462357166362835,1.3632087078806565,18.70831128444042,0.24057253273705334,16.000000000000004,0.08040272692839423C13.234601189059687,-0.08314324102459397,10.004212905067462,0.3773862474011631,8.187940200169887,2.4691155149278785C6.33530058675737,4.602727109213704,7.676115503743739,8.00009711840812,6.792655028690254,10.684136902292565C6.14242188089844,12.659609135351976,4.270676352148982,13.990648734089,3.7342053088876934,15.999999999999998C3.0991915716599614,18.37844273758492,1.7819948372152399,21.43078437531852,3.43683743145964,23.253345290819794C5.228556622969969,25.226655248732317,8.868127427161479,23.02707822172284,11.232254802352848,24.257976919867374C13.429909201288137,25.402200351738127,13.703574305860052,28.864191842316487,16,29.79443973965115" fill="#5d7669" strokewidth="0"/>
</g>
<g id="SVGRepo_tracerCarrier" stroke-linecap="round" stroke-linejoin="round"/>
<g id="SVGRepo_iconCarrier"> <path opacity="0.4" d="M12.1207 12.78C12.0507 12.77 11.9607 12.77 11.8807 12.78C10.1207 12.72 8.7207 11.28 8.7207 9.50998C8.7207 7.69998 10.1807 6.22998 12.0007 6.22998C13.8107 6.22998 15.2807 7.69998 15.2807 9.50998C15.2707 11.28 13.8807 12.72 12.1207 12.78Z" stroke="#030303" stroke-width="1.6799999999999997" stroke-linecap="round" stroke-linejoin="round"/> <path opacity="0.34" d="M18.7398 19.3801C16.9598 21.0101 14.5998 22.0001 11.9998 22.0001C9.39977 22.0001 7.03977 21.0101 5.25977 19.3801C5.35977 18.4401 5.95977 17.5201 7.02977 16.8001C9.76977 14.9801 14.2498 14.9801 16.9698 16.8001C18.0398 17.5201 18.6398 18.4401 18.7398 19.3801Z" stroke="#030303" stroke-width="1.6799999999999997" stroke-linecap="round" stroke-linejoin="round"/> <path d="M12 22C17.5228 22 22 17.5228 22 12C22 6.47715 17.5228 2 12 2C6.47715 2 2 6.47715 2 12C2 17.5228 6.47715 22 12 22Z" stroke="#030303" stroke-width="1.6799999999999997" stroke-linecap="round" stroke-linejoin="round"/> </g>
</svg>